<?xml version="1.0" encoding="utf-8"?>
<!-- Generator: Adobe Illustrator 24.0.1, SVG Export Plug-In . SVG Version: 6.00 Build 0)  -->
<svg version="1.1" id="Layer_1" xmlns="http://www.w3.org/2000/svg" xmlns:xlink="http://www.w3.org/1999/xlink" x="0px" y="0px"
	 viewBox="0 0 512 512" style="enable-background:new 0 0 512 512;" xml:space="preserve">
<style type="text/css">
	.st0{fill:url(#SVGID_1_);}
</style>
<g>
	
		<linearGradient id="SVGID_1_" gradientUnits="userSpaceOnUse" x1="81.1658" y1="432.5531" x2="441.2091" y2="68.9968" gradientTransform="matrix(1 0 0 -1 0 512)">
		<stop  offset="0" style="stop-color:#7233EC"/>
		<stop  offset="1" style="stop-color:#4762E6"/>
	</linearGradient>
	<path class="st0" d="M485.4,295.8l-24.8,133.9c-3,15.6-15.1,27.9-30.9,30.9l-133.9,24.8c-21.7,3.9-42.2-10.8-45.2-32.7l-18.9-139.4
		c-2.3-17.1-15.8-30.7-33-33l-5.6-0.8L59.3,261.3c-20.4-2.8-34.8-21-33.2-41.1c0.2-1.3,0.3-2.6,0.5-4.1L51.4,82.3
		c3-15.6,15.1-27.9,30.9-30.9l133.9-24.8c21.7-3.9,42.2,10.8,45.2,32.7l17.2,127.5l1.6,12c2.3,17.2,15.8,30.7,33,33l123.8,16.8
		l15.6,2.1C474.5,253.6,489.3,274.1,485.4,295.8z"/>
</g>
</svg>
