<?xml version="1.0" encoding="utf-8"?>
<!-- Generator: Adobe Illustrator 24.0.1, SVG Export Plug-In . SVG Version: 6.00 Build 0)  -->
<svg version="1.1" id="Layer_1" xmlns="http://www.w3.org/2000/svg" xmlns:xlink="http://www.w3.org/1999/xlink" x="0px" y="0px"
	 viewBox="0 0 512 512" style="enable-background:new 0 0 512 512;" xml:space="preserve">
<style type="text/css">
	.st0{fill:url(#SVGID_1_);}
</style>
<g>
	<linearGradient id="SVGID_1_" gradientUnits="userSpaceOnUse" x1="149.5038" y1="148.4637" x2="368.7115" y2="369.8102">
		<stop  offset="0" style="stop-color:#7233EC"/>
		<stop  offset="1" style="stop-color:#4762E6"/>
	</linearGradient>
	<path class="st0" d="M395.6,280.2l-15.1,81.5c-1.8,9.5-9.2,17-18.8,18.8l-81.5,15.1c-13.2,2.4-25.7-6.6-27.5-19.9l-11.5-84.9
		c-1.4-10.4-9.6-18.7-20.1-20.1l-3.4-0.5l-81.5-11c-12.4-1.7-21.2-12.8-20.2-25c0.1-0.8,0.2-1.6,0.3-2.5l15.1-81.5
		c1.8-9.5,9.2-17,18.8-18.8l81.5-15.1c13.2-2.4,25.7,6.6,27.5,19.9l10.5,77.6l1,7.3c1.4,10.5,9.6,18.7,20.1,20.1l75.4,10.2l9.5,1.3
		C389,254.5,398,267,395.6,280.2z"/>
</g>
</svg>
